<?xml version="1.0" encoding="UTF-8"?><svg id="a" xmlns="http://www.w3.org/2000/svg" xmlns:xlink="http://www.w3.org/1999/xlink" viewBox="0 0 268.71 271.08"><defs><pattern id="b" x="0" y="0" width="81" height="80.52" patternTransform="translate(-13074.12 -6893.29) scale(.5 -.5)" patternUnits="userSpaceOnUse" viewBox="0 0 81 80.52"><rect width="81" height="80.52" style="fill:none;"/><rect width="81" height="80.52" style="fill:none;"/><circle cx="69.81" r="2.67"/><circle cx="77.27" r="2.67"/><circle cx="3.73" r="2.67"/><circle cx="11.19" r="2.67"/><circle cx="69.81" cy="40.26" r="2.67"/><circle cx="77.27" cy="40.26" r="2.67"/><circle cx="66.08" cy="33.55" r="2.67"/><circle cx="73.54" cy="33.55" r="2.67"/><circle cx="81" cy="33.55" r="2.67"/><circle cx="62.35" cy="26.84" r="2.67"/><circle cx="69.81" cy="26.84" r="2.67"/><circle cx="77.27" cy="26.84" r="2.67"/><circle cx="58.62" cy="20.13" r="2.67"/><circle cx="66.08" cy="20.13" r="2.67"/><circle cx="73.54" cy="20.13" r="2.67"/><circle cx="81" cy="20.13" r="2.67"/><circle cx="62.35" cy="13.42" r="2.67"/><circle cx="69.81" cy="13.42" r="2.67"/><circle cx="77.27" cy="13.42" r="2.67"/><circle cx="66.08" cy="6.71" r="2.67"/><circle cx="73.54" cy="6.71" r="2.67"/><circle cx="81" cy="6.71" r="2.67"/><circle cx="69.81" r="2.67"/><circle cx="77.27" r="2.67"/><circle cx="29.31" cy="20.13" r="2.67"/><circle cx="36.77" cy="20.13" r="2.67"/><circle cx="44.23" cy="20.13" r="2.67"/><circle cx="51.69" cy="20.13" r="2.67"/><circle cx="25.58" cy="13.42" r="2.67"/><circle cx="33.04" cy="13.42" r="2.67"/><circle cx="40.5" cy="13.42" r="2.67"/><circle cx="47.96" cy="13.42" r="2.67"/><circle cx="55.42" cy="13.42" r="2.67"/><circle cx="21.85" cy="6.71" r="2.67"/><circle cx="29.31" cy="6.71" r="2.67"/><circle cx="36.77" cy="6.71" r="2.67"/><circle cx="44.23" cy="6.71" r="2.67"/><circle cx="51.69" cy="6.71" r="2.67"/><circle cx="59.15" cy="6.71" r="2.67"/><circle cx="18.12" r="2.67"/><circle cx="25.58" r="2.67"/><circle cx="33.04" r="2.67"/><circle cx="40.5" r="2.67"/><circle cx="47.96" r="2.67"/><circle cx="55.42" r="2.67"/><circle cx="62.88" r="2.67"/><circle cx="3.73" cy="40.26" r="2.67"/><circle cx="11.19" cy="40.26" r="2.67"/><circle cy="33.55" r="2.67"/><circle cx="7.46" cy="33.55" r="2.67"/><circle cx="14.92" cy="33.55" r="2.67"/><circle cx="3.73" cy="26.84" r="2.67"/><circle cx="11.19" cy="26.84" r="2.67"/><circle cx="18.65" cy="26.84" r="2.67"/><circle cy="20.13" r="2.67"/><circle cx="7.46" cy="20.13" r="2.67"/><circle cx="14.92" cy="20.13" r="2.67"/><circle cx="22.38" cy="20.13" r="2.67"/><circle cx="3.73" cy="13.42" r="2.67"/><circle cx="11.19" cy="13.42" r="2.67"/><circle cx="18.65" cy="13.42" r="2.67"/><circle cy="6.71" r="2.67"/><circle cx="7.46" cy="6.71" r="2.67"/><circle cx="14.92" cy="6.71" r="2.67"/><circle cx="3.73" r="2.67"/><circle cx="11.19" r="2.67"/><circle cx="69.81" cy="80.52" r="2.67"/><circle cx="77.27" cy="80.52" r="2.67"/><circle cx="66.08" cy="73.81" r="2.67"/><circle cx="73.54" cy="73.81" r="2.67"/><circle cx="81" cy="73.81" r="2.67"/><circle cx="62.35" cy="67.1" r="2.67"/><circle cx="69.81" cy="67.1" r="2.67"/><circle cx="77.27" cy="67.1" r="2.67"/><circle cx="58.62" cy="60.39" r="2.67"/><circle cx="66.08" cy="60.39" r="2.67"/><circle cx="73.54" cy="60.39" r="2.67"/><circle cx="81" cy="60.39" r="2.67"/><circle cx="62.35" cy="53.68" r="2.67"/><circle cx="69.81" cy="53.68" r="2.67"/><circle cx="77.27" cy="53.68" r="2.67"/><circle cx="66.08" cy="46.97" r="2.67"/><circle cx="73.54" cy="46.97" r="2.67"/><circle cx="81" cy="46.97" r="2.67"/><circle cx="69.81" cy="40.26" r="2.67"/><circle cx="77.27" cy="40.26" r="2.67"/><circle cx="29.31" cy="60.39" r="2.67"/><circle cx="36.77" cy="60.39" r="2.67"/><circle cx="44.23" cy="60.39" r="2.67"/><circle cx="51.69" cy="60.39" r="2.67"/><circle cx="25.58" cy="53.68" r="2.67"/><circle cx="33.04" cy="53.68" r="2.67"/><circle cx="40.5" cy="53.68" r="2.67"/><circle cx="47.96" cy="53.68" r="2.67"/><circle cx="55.42" cy="53.68" r="2.67"/><circle cx="21.85" cy="46.97" r="2.67"/><circle cx="29.31" cy="46.97" r="2.67"/><circle cx="36.77" cy="46.97" r="2.67"/><circle cx="44.23" cy="46.97" r="2.67"/><circle cx="51.69" cy="46.97" r="2.67"/><circle cx="59.15" cy="46.97" r="2.67"/><circle cx="18.12" cy="40.26" r="2.67"/><circle cx="25.58" cy="40.26" r="2.67"/><circle cx="33.04" cy="40.26" r="2.67"/><circle cx="40.5" cy="40.26" r="2.67"/><circle cx="47.96" cy="40.26" r="2.67"/><circle cx="55.42" cy="40.26" r="2.67"/><circle cx="62.88" cy="40.26" r="2.67"/><circle cx="21.85" cy="33.55" r="2.67"/><circle cx="29.31" cy="33.55" r="2.67"/><circle cx="36.77" cy="33.55" r="2.67"/><circle cx="44.23" cy="33.55" r="2.67"/><circle cx="51.69" cy="33.55" r="2.67"/><circle cx="59.15" cy="33.55" r="2.67"/><circle cx="25.58" cy="26.84" r="2.67"/><circle cx="33.04" cy="26.84" r="2.67"/><circle cx="40.5" cy="26.84" r="2.67"/><circle cx="47.96" cy="26.84" r="2.67"/><circle cx="55.42" cy="26.84" r="2.67"/><circle cx="29.31" cy="20.13" r="2.67"/><circle cx="36.77" cy="20.13" r="2.67"/><circle cx="44.23" cy="20.13" r="2.67"/><circle cx="51.69" cy="20.13" r="2.67"/><circle cx="3.73" cy="80.52" r="2.67"/><circle cx="11.19" cy="80.52" r="2.67"/><circle cy="73.81" r="2.67"/><circle cx="7.46" cy="73.81" r="2.67"/><circle cx="14.92" cy="73.81" r="2.67"/><circle cx="3.73" cy="67.1" r="2.67"/><circle cx="11.19" cy="67.1" r="2.67"/><circle cx="18.65" cy="67.1" r="2.67"/><circle cy="60.39" r="2.67"/><circle cx="7.46" cy="60.39" r="2.67"/><circle cx="14.92" cy="60.39" r="2.67"/><circle cx="22.38" cy="60.39" r="2.67"/><circle cx="3.73" cy="53.68" r="2.67"/><circle cx="11.19" cy="53.68" r="2.67"/><circle cx="18.65" cy="53.68" r="2.67"/><circle cy="46.97" r="2.67"/><circle cx="7.46" cy="46.97" r="2.67"/><circle cx="14.92" cy="46.97" r="2.67"/><circle cx="3.73" cy="40.26" r="2.67"/><circle cx="11.19" cy="40.26" r="2.67"/><circle cx="69.81" cy="80.52" r="2.67"/><circle cx="77.27" cy="80.52" r="2.67"/><circle cx="18.12" cy="80.52" r="2.67"/><circle cx="25.58" cy="80.52" r="2.67"/><circle cx="33.04" cy="80.52" r="2.67"/><circle cx="40.5" cy="80.52" r="2.67"/><circle cx="47.96" cy="80.52" r="2.67"/><circle cx="55.42" cy="80.52" r="2.67"/><circle cx="62.88" cy="80.52" r="2.67"/><circle cx="21.85" cy="73.81" r="2.67"/><circle cx="29.31" cy="73.81" r="2.67"/><circle cx="36.77" cy="73.81" r="2.67"/><circle cx="44.23" cy="73.81" r="2.67"/><circle cx="51.69" cy="73.81" r="2.67"/><circle cx="59.15" cy="73.81" r="2.67"/><circle cx="25.58" cy="67.1" r="2.67"/><circle cx="33.04" cy="67.1" r="2.67"/><circle cx="40.5" cy="67.1" r="2.67"/><circle cx="47.96" cy="67.1" r="2.67"/><circle cx="55.42" cy="67.1" r="2.67"/><circle cx="29.31" cy="60.39" r="2.67"/><circle cx="36.77" cy="60.39" r="2.67"/><circle cx="44.23" cy="60.39" r="2.67"/><circle cx="51.69" cy="60.39" r="2.67"/><circle cx="3.73" cy="80.52" r="2.67"/><circle cx="11.19" cy="80.52" r="2.67"/></pattern><pattern id="c" x="0" y="0" width="81" height="80.52" patternTransform="translate(-13932.97 -6880.37) scale(.5 -.5)" patternUnits="userSpaceOnUse" viewBox="0 0 81 80.52"><rect width="81" height="80.52" style="fill:none;"/><rect width="81" height="80.52" style="fill:none;"/><circle cx="69.81" r="2.67"/><circle cx="77.27" r="2.67"/><circle cx="3.73" r="2.67"/><circle cx="11.19" r="2.67"/><circle cx="69.81" cy="40.26" r="2.67"/><circle cx="77.27" cy="40.26" r="2.67"/><circle cx="66.08" cy="33.55" r="2.67"/><circle cx="73.54" cy="33.55" r="2.67"/><circle cx="81" cy="33.55" r="2.67"/><circle cx="62.35" cy="26.84" r="2.67"/><circle cx="69.81" cy="26.84" r="2.67"/><circle cx="77.27" cy="26.84" r="2.67"/><circle cx="58.62" cy="20.13" r="2.67"/><circle cx="66.08" cy="20.13" r="2.67"/><circle cx="73.54" cy="20.13" r="2.67"/><circle cx="81" cy="20.13" r="2.67"/><circle cx="62.35" cy="13.42" r="2.67"/><circle cx="69.81" cy="13.42" r="2.67"/><circle cx="77.27" cy="13.42" r="2.67"/><circle cx="66.08" cy="6.71" r="2.67"/><circle cx="73.54" cy="6.71" r="2.67"/><circle cx="81" cy="6.71" r="2.67"/><circle cx="69.81" r="2.67"/><circle cx="77.27" r="2.67"/><circle cx="29.31" cy="20.13" r="2.67"/><circle cx="36.77" cy="20.13" r="2.67"/><circle cx="44.23" cy="20.13" r="2.67"/><circle cx="51.69" cy="20.13" r="2.67"/><circle cx="25.58" cy="13.42" r="2.67"/><circle cx="33.04" cy="13.42" r="2.67"/><circle cx="40.5" cy="13.42" r="2.67"/><circle cx="47.96" cy="13.42" r="2.67"/><circle cx="55.42" cy="13.42" r="2.67"/><circle cx="21.85" cy="6.71" r="2.67"/><circle cx="29.31" cy="6.71" r="2.67"/><circle cx="36.77" cy="6.71" r="2.67"/><circle cx="44.23" cy="6.71" r="2.67"/><circle cx="51.69" cy="6.71" r="2.67"/><circle cx="59.15" cy="6.71" r="2.67"/><circle cx="18.12" r="2.67"/><circle cx="25.58" r="2.67"/><circle cx="33.04" r="2.67"/><circle cx="40.5" r="2.67"/><circle cx="47.96" r="2.67"/><circle cx="55.42" r="2.67"/><circle cx="62.88" r="2.67"/><circle cx="3.73" cy="40.26" r="2.67"/><circle cx="11.19" cy="40.26" r="2.67"/><circle cy="33.55" r="2.67"/><circle cx="7.46" cy="33.55" r="2.67"/><circle cx="14.92" cy="33.55" r="2.67"/><circle cx="3.73" cy="26.84" r="2.67"/><circle cx="11.19" cy="26.84" r="2.67"/><circle cx="18.65" cy="26.84" r="2.67"/><circle cy="20.13" r="2.67"/><circle cx="7.46" cy="20.13" r="2.67"/><circle cx="14.92" cy="20.13" r="2.67"/><circle cx="22.38" cy="20.13" r="2.67"/><circle cx="3.73" cy="13.42" r="2.67"/><circle cx="11.19" cy="13.42" r="2.67"/><circle cx="18.65" cy="13.42" r="2.67"/><circle cy="6.71" r="2.67"/><circle cx="7.46" cy="6.71" r="2.67"/><circle cx="14.92" cy="6.71" r="2.67"/><circle cx="3.73" r="2.67"/><circle cx="11.19" r="2.67"/><circle cx="69.81" cy="80.52" r="2.67"/><circle cx="77.27" cy="80.52" r="2.67"/><circle cx="66.08" cy="73.81" r="2.67"/><circle cx="73.54" cy="73.81" r="2.67"/><circle cx="81" cy="73.81" r="2.67"/><circle cx="62.35" cy="67.1" r="2.67"/><circle cx="69.81" cy="67.1" r="2.67"/><circle cx="77.27" cy="67.1" r="2.67"/><circle cx="58.62" cy="60.39" r="2.67"/><circle cx="66.08" cy="60.39" r="2.67"/><circle cx="73.54" cy="60.39" r="2.67"/><circle cx="81" cy="60.39" r="2.67"/><circle cx="62.35" cy="53.68" r="2.67"/><circle cx="69.81" cy="53.68" r="2.67"/><circle cx="77.27" cy="53.68" r="2.67"/><circle cx="66.08" cy="46.97" r="2.67"/><circle cx="73.54" cy="46.97" r="2.67"/><circle cx="81" cy="46.97" r="2.67"/><circle cx="69.81" cy="40.26" r="2.67"/><circle cx="77.27" cy="40.26" r="2.67"/><circle cx="29.31" cy="60.39" r="2.67"/><circle cx="36.77" cy="60.39" r="2.67"/><circle cx="44.23" cy="60.39" r="2.67"/><circle cx="51.69" cy="60.39" r="2.67"/><circle cx="25.58" cy="53.68" r="2.67"/><circle cx="33.04" cy="53.68" r="2.67"/><circle cx="40.5" cy="53.68" r="2.67"/><circle cx="47.96" cy="53.68" r="2.67"/><circle cx="55.42" cy="53.68" r="2.67"/><circle cx="21.85" cy="46.97" r="2.67"/><circle cx="29.31" cy="46.97" r="2.67"/><circle cx="36.77" cy="46.97" r="2.67"/><circle cx="44.23" cy="46.97" r="2.67"/><circle cx="51.69" cy="46.97" r="2.67"/><circle cx="59.15" cy="46.97" r="2.67"/><circle cx="18.12" cy="40.26" r="2.67"/><circle cx="25.58" cy="40.26" r="2.67"/><circle cx="33.04" cy="40.26" r="2.67"/><circle cx="40.5" cy="40.26" r="2.67"/><circle cx="47.96" cy="40.26" r="2.67"/><circle cx="55.42" cy="40.26" r="2.67"/><circle cx="62.88" cy="40.26" r="2.67"/><circle cx="21.85" cy="33.55" r="2.67"/><circle cx="29.31" cy="33.55" r="2.67"/><circle cx="36.77" cy="33.55" r="2.67"/><circle cx="44.23" cy="33.55" r="2.67"/><circle cx="51.69" cy="33.55" r="2.67"/><circle cx="59.15" cy="33.55" r="2.67"/><circle cx="25.58" cy="26.84" r="2.67"/><circle cx="33.04" cy="26.84" r="2.67"/><circle cx="40.5" cy="26.84" r="2.67"/><circle cx="47.96" cy="26.84" r="2.67"/><circle cx="55.42" cy="26.84" r="2.67"/><circle cx="29.31" cy="20.13" r="2.67"/><circle cx="36.77" cy="20.13" r="2.67"/><circle cx="44.23" cy="20.13" r="2.67"/><circle cx="51.69" cy="20.13" r="2.67"/><circle cx="3.73" cy="80.52" r="2.67"/><circle cx="11.19" cy="80.52" r="2.67"/><circle cy="73.81" r="2.67"/><circle cx="7.46" cy="73.81" r="2.67"/><circle cx="14.92" cy="73.81" r="2.67"/><circle cx="3.73" cy="67.1" r="2.67"/><circle cx="11.19" cy="67.1" r="2.67"/><circle cx="18.65" cy="67.1" r="2.67"/><circle cy="60.39" r="2.67"/><circle cx="7.46" cy="60.39" r="2.67"/><circle cx="14.92" cy="60.39" r="2.67"/><circle cx="22.38" cy="60.39" r="2.67"/><circle cx="3.73" cy="53.68" r="2.67"/><circle cx="11.19" cy="53.68" r="2.67"/><circle cx="18.65" cy="53.68" r="2.67"/><circle cy="46.97" r="2.67"/><circle cx="7.46" cy="46.97" r="2.67"/><circle cx="14.92" cy="46.97" r="2.67"/><circle cx="3.73" cy="40.26" r="2.67"/><circle cx="11.19" cy="40.26" r="2.67"/><circle cx="69.81" cy="80.52" r="2.67"/><circle cx="77.27" cy="80.52" r="2.67"/><circle cx="18.12" cy="80.52" r="2.67"/><circle cx="25.58" cy="80.52" r="2.67"/><circle cx="33.04" cy="80.52" r="2.67"/><circle cx="40.5" cy="80.52" r="2.67"/><circle cx="47.96" cy="80.52" r="2.67"/><circle cx="55.42" cy="80.52" r="2.67"/><circle cx="62.88" cy="80.52" r="2.67"/><circle cx="21.85" cy="73.81" r="2.67"/><circle cx="29.31" cy="73.81" r="2.67"/><circle cx="36.77" cy="73.81" r="2.67"/><circle cx="44.23" cy="73.81" r="2.67"/><circle cx="51.69" cy="73.81" r="2.67"/><circle cx="59.15" cy="73.81" r="2.67"/><circle cx="25.58" cy="67.1" r="2.67"/><circle cx="33.04" cy="67.1" r="2.67"/><circle cx="40.5" cy="67.1" r="2.67"/><circle cx="47.96" cy="67.1" r="2.67"/><circle cx="55.42" cy="67.1" r="2.67"/><circle cx="29.31" cy="60.39" r="2.67"/><circle cx="36.77" cy="60.39" r="2.67"/><circle cx="44.23" cy="60.39" r="2.67"/><circle cx="51.69" cy="60.39" r="2.67"/><circle cx="3.73" cy="80.52" r="2.67"/><circle cx="11.19" cy="80.52" r="2.67"/></pattern><pattern id="d" x="0" y="0" width="81" height="80.52" patternTransform="translate(-13140.13 -6926.7) scale(.5 -.5)" patternUnits="userSpaceOnUse" viewBox="0 0 81 80.52"><rect width="81" height="80.52" style="fill:none;"/><rect width="81" height="80.52" style="fill:none;"/><circle cx="69.81" r="2.67"/><circle cx="77.27" r="2.67"/><circle cx="3.73" r="2.67"/><circle cx="11.19" r="2.67"/><circle cx="69.81" cy="40.26" r="2.67"/><circle cx="77.27" cy="40.26" r="2.67"/><circle cx="66.08" cy="33.55" r="2.67"/><circle cx="73.54" cy="33.55" r="2.67"/><circle cx="81" cy="33.55" r="2.67"/><circle cx="62.35" cy="26.84" r="2.67"/><circle cx="69.81" cy="26.84" r="2.67"/><circle cx="77.27" cy="26.84" r="2.67"/><circle cx="58.62" cy="20.13" r="2.67"/><circle cx="66.08" cy="20.13" r="2.67"/><circle cx="73.54" cy="20.13" r="2.67"/><circle cx="81" cy="20.13" r="2.67"/><circle cx="62.35" cy="13.42" r="2.67"/><circle cx="69.81" cy="13.42" r="2.67"/><circle cx="77.27" cy="13.42" r="2.67"/><circle cx="66.08" cy="6.71" r="2.67"/><circle cx="73.54" cy="6.71" r="2.67"/><circle cx="81" cy="6.71" r="2.67"/><circle cx="69.81" r="2.67"/><circle cx="77.27" r="2.67"/><circle cx="29.31" cy="20.13" r="2.67"/><circle cx="36.77" cy="20.13" r="2.67"/><circle cx="44.23" cy="20.13" r="2.67"/><circle cx="51.69" cy="20.13" r="2.67"/><circle cx="25.58" cy="13.42" r="2.67"/><circle cx="33.04" cy="13.42" r="2.67"/><circle cx="40.5" cy="13.42" r="2.67"/><circle cx="47.96" cy="13.42" r="2.67"/><circle cx="55.42" cy="13.42" r="2.67"/><circle cx="21.85" cy="6.71" r="2.67"/><circle cx="29.31" cy="6.71" r="2.67"/><circle cx="36.77" cy="6.71" r="2.67"/><circle cx="44.23" cy="6.71" r="2.67"/><circle cx="51.69" cy="6.71" r="2.67"/><circle cx="59.15" cy="6.71" r="2.67"/><circle cx="18.12" r="2.67"/><circle cx="25.58" r="2.67"/><circle cx="33.04" r="2.67"/><circle cx="40.5" r="2.67"/><circle cx="47.96" r="2.67"/><circle cx="55.42" r="2.67"/><circle cx="62.88" r="2.67"/><circle cx="3.73" cy="40.26" r="2.67"/><circle cx="11.19" cy="40.26" r="2.67"/><circle cy="33.55" r="2.67"/><circle cx="7.46" cy="33.55" r="2.67"/><circle cx="14.92" cy="33.55" r="2.67"/><circle cx="3.73" cy="26.84" r="2.67"/><circle cx="11.19" cy="26.84" r="2.67"/><circle cx="18.65" cy="26.84" r="2.67"/><circle cy="20.13" r="2.67"/><circle cx="7.46" cy="20.13" r="2.67"/><circle cx="14.92" cy="20.13" r="2.67"/><circle cx="22.38" cy="20.13" r="2.67"/><circle cx="3.73" cy="13.42" r="2.67"/><circle cx="11.19" cy="13.42" r="2.67"/><circle cx="18.65" cy="13.42" r="2.67"/><circle cy="6.71" r="2.67"/><circle cx="7.46" cy="6.71" r="2.67"/><circle cx="14.92" cy="6.71" r="2.67"/><circle cx="3.73" r="2.67"/><circle cx="11.19" r="2.67"/><circle cx="69.81" cy="80.52" r="2.67"/><circle cx="77.27" cy="80.52" r="2.67"/><circle cx="66.08" cy="73.81" r="2.67"/><circle cx="73.54" cy="73.81" r="2.67"/><circle cx="81" cy="73.81" r="2.67"/><circle cx="62.35" cy="67.1" r="2.67"/><circle cx="69.81" cy="67.1" r="2.67"/><circle cx="77.27" cy="67.1" r="2.67"/><circle cx="58.62" cy="60.39" r="2.67"/><circle cx="66.08" cy="60.39" r="2.67"/><circle cx="73.54" cy="60.39" r="2.67"/><circle cx="81" cy="60.39" r="2.67"/><circle cx="62.35" cy="53.68" r="2.67"/><circle cx="69.81" cy="53.68" r="2.67"/><circle cx="77.27" cy="53.68" r="2.67"/><circle cx="66.08" cy="46.97" r="2.67"/><circle cx="73.54" cy="46.97" r="2.67"/><circle cx="81" cy="46.97" r="2.67"/><circle cx="69.81" cy="40.26" r="2.67"/><circle cx="77.27" cy="40.26" r="2.67"/><circle cx="29.31" cy="60.39" r="2.67"/><circle cx="36.77" cy="60.39" r="2.67"/><circle cx="44.23" cy="60.39" r="2.67"/><circle cx="51.69" cy="60.39" r="2.67"/><circle cx="25.58" cy="53.68" r="2.67"/><circle cx="33.04" cy="53.68" r="2.67"/><circle cx="40.5" cy="53.68" r="2.67"/><circle cx="47.96" cy="53.68" r="2.67"/><circle cx="55.42" cy="53.68" r="2.67"/><circle cx="21.85" cy="46.97" r="2.67"/><circle cx="29.31" cy="46.97" r="2.67"/><circle cx="36.77" cy="46.97" r="2.67"/><circle cx="44.23" cy="46.97" r="2.67"/><circle cx="51.69" cy="46.97" r="2.67"/><circle cx="59.15" cy="46.97" r="2.67"/><circle cx="18.12" cy="40.26" r="2.67"/><circle cx="25.58" cy="40.26" r="2.67"/><circle cx="33.04" cy="40.26" r="2.67"/><circle cx="40.5" cy="40.26" r="2.67"/><circle cx="47.96" cy="40.26" r="2.67"/><circle cx="55.42" cy="40.26" r="2.67"/><circle cx="62.88" cy="40.26" r="2.67"/><circle cx="21.85" cy="33.55" r="2.67"/><circle cx="29.31" cy="33.55" r="2.67"/><circle cx="36.77" cy="33.55" r="2.67"/><circle cx="44.23" cy="33.55" r="2.67"/><circle cx="51.69" cy="33.55" r="2.67"/><circle cx="59.15" cy="33.55" r="2.67"/><circle cx="25.58" cy="26.84" r="2.67"/><circle cx="33.04" cy="26.84" r="2.67"/><circle cx="40.5" cy="26.84" r="2.67"/><circle cx="47.96" cy="26.84" r="2.67"/><circle cx="55.42" cy="26.84" r="2.67"/><circle cx="29.31" cy="20.13" r="2.67"/><circle cx="36.77" cy="20.13" r="2.67"/><circle cx="44.23" cy="20.13" r="2.67"/><circle cx="51.69" cy="20.13" r="2.67"/><circle cx="3.73" cy="80.52" r="2.67"/><circle cx="11.19" cy="80.52" r="2.67"/><circle cy="73.81" r="2.67"/><circle cx="7.46" cy="73.81" r="2.67"/><circle cx="14.92" cy="73.81" r="2.67"/><circle cx="3.73" cy="67.1" r="2.67"/><circle cx="11.19" cy="67.1" r="2.67"/><circle cx="18.65" cy="67.1" r="2.67"/><circle cy="60.39" r="2.67"/><circle cx="7.46" cy="60.39" r="2.67"/><circle cx="14.92" cy="60.39" r="2.67"/><circle cx="22.38" cy="60.39" r="2.67"/><circle cx="3.73" cy="53.68" r="2.67"/><circle cx="11.19" cy="53.68" r="2.67"/><circle cx="18.65" cy="53.68" r="2.67"/><circle cy="46.97" r="2.67"/><circle cx="7.46" cy="46.97" r="2.67"/><circle cx="14.92" cy="46.97" r="2.67"/><circle cx="3.73" cy="40.26" r="2.67"/><circle cx="11.19" cy="40.26" r="2.67"/><circle cx="69.81" cy="80.52" r="2.67"/><circle cx="77.27" cy="80.52" r="2.67"/><circle cx="18.12" cy="80.52" r="2.67"/><circle cx="25.58" cy="80.52" r="2.67"/><circle cx="33.04" cy="80.52" r="2.67"/><circle cx="40.5" cy="80.52" r="2.67"/><circle cx="47.96" cy="80.52" r="2.67"/><circle cx="55.42" cy="80.52" r="2.67"/><circle cx="62.88" cy="80.52" r="2.67"/><circle cx="21.85" cy="73.81" r="2.67"/><circle cx="29.31" cy="73.81" r="2.67"/><circle cx="36.77" cy="73.81" r="2.67"/><circle cx="44.23" cy="73.81" r="2.67"/><circle cx="51.69" cy="73.81" r="2.67"/><circle cx="59.15" cy="73.81" r="2.67"/><circle cx="25.58" cy="67.1" r="2.67"/><circle cx="33.04" cy="67.1" r="2.67"/><circle cx="40.5" cy="67.1" r="2.67"/><circle cx="47.96" cy="67.1" r="2.67"/><circle cx="55.42" cy="67.1" r="2.67"/><circle cx="29.31" cy="60.39" r="2.67"/><circle cx="36.77" cy="60.39" r="2.67"/><circle cx="44.23" cy="60.39" r="2.67"/><circle cx="51.69" cy="60.39" r="2.67"/><circle cx="3.73" cy="80.52" r="2.67"/><circle cx="11.19" cy="80.52" r="2.67"/></pattern><pattern id="e" x="0" y="0" width="81" height="80.52" patternTransform="translate(-13245.59 -6665.5) rotate(1.7) scale(.5 -.5)" patternUnits="userSpaceOnUse" viewBox="0 0 81 80.52"><rect width="81" height="80.52" style="fill:none;"/><rect width="81" height="80.52" style="fill:none;"/><circle cx="69.81" r="2.67"/><circle cx="77.27" r="2.67"/><circle cx="3.73" r="2.67"/><circle cx="11.19" r="2.67"/><circle cx="69.81" cy="40.26" r="2.67"/><circle cx="77.27" cy="40.26" r="2.67"/><circle cx="66.08" cy="33.55" r="2.67"/><circle cx="73.54" cy="33.55" r="2.67"/><circle cx="81" cy="33.55" r="2.67"/><circle cx="62.35" cy="26.84" r="2.67"/><circle cx="69.81" cy="26.84" r="2.67"/><circle cx="77.27" cy="26.84" r="2.67"/><circle cx="58.62" cy="20.13" r="2.67"/><circle cx="66.08" cy="20.13" r="2.67"/><circle cx="73.54" cy="20.13" r="2.67"/><circle cx="81" cy="20.13" r="2.67"/><circle cx="62.35" cy="13.42" r="2.67"/><circle cx="69.81" cy="13.42" r="2.67"/><circle cx="77.27" cy="13.42" r="2.67"/><circle cx="66.08" cy="6.71" r="2.67"/><circle cx="73.54" cy="6.71" r="2.67"/><circle cx="81" cy="6.71" r="2.67"/><circle cx="69.81" r="2.67"/><circle cx="77.27" r="2.67"/><circle cx="29.31" cy="20.13" r="2.67"/><circle cx="36.77" cy="20.13" r="2.67"/><circle cx="44.23" cy="20.13" r="2.67"/><circle cx="51.69" cy="20.13" r="2.67"/><circle cx="25.58" cy="13.42" r="2.67"/><circle cx="33.04" cy="13.42" r="2.67"/><circle cx="40.5" cy="13.42" r="2.67"/><circle cx="47.96" cy="13.42" r="2.67"/><circle cx="55.42" cy="13.42" r="2.67"/><circle cx="21.85" cy="6.71" r="2.67"/><circle cx="29.31" cy="6.71" r="2.67"/><circle cx="36.77" cy="6.71" r="2.67"/><circle cx="44.23" cy="6.71" r="2.67"/><circle cx="51.69" cy="6.71" r="2.67"/><circle cx="59.15" cy="6.71" r="2.67"/><circle cx="18.12" r="2.67"/><circle cx="25.58" r="2.67"/><circle cx="33.04" r="2.67"/><circle cx="40.5" r="2.67"/><circle cx="47.96" r="2.67"/><circle cx="55.42" r="2.67"/><circle cx="62.88" r="2.67"/><circle cx="3.73" cy="40.26" r="2.67"/><circle cx="11.19" cy="40.26" r="2.67"/><circle cy="33.55" r="2.67"/><circle cx="7.46" cy="33.55" r="2.67"/><circle cx="14.92" cy="33.55" r="2.67"/><circle cx="3.73" cy="26.84" r="2.67"/><circle cx="11.19" cy="26.84" r="2.67"/><circle cx="18.65" cy="26.84" r="2.67"/><circle cy="20.13" r="2.67"/><circle cx="7.46" cy="20.13" r="2.67"/><circle cx="14.92" cy="20.13" r="2.67"/><circle cx="22.38" cy="20.13" r="2.67"/><circle cx="3.73" cy="13.42" r="2.67"/><circle cx="11.19" cy="13.42" r="2.67"/><circle cx="18.65" cy="13.42" r="2.67"/><circle cy="6.71" r="2.67"/><circle cx="7.46" cy="6.71" r="2.67"/><circle cx="14.92" cy="6.71" r="2.67"/><circle cx="3.73" r="2.67"/><circle cx="11.19" r="2.67"/><circle cx="69.81" cy="80.52" r="2.67"/><circle cx="77.27" cy="80.52" r="2.67"/><circle cx="66.08" cy="73.81" r="2.67"/><circle cx="73.54" cy="73.81" r="2.67"/><circle cx="81" cy="73.81" r="2.67"/><circle cx="62.35" cy="67.1" r="2.67"/><circle cx="69.81" cy="67.1" r="2.67"/><circle cx="77.27" cy="67.1" r="2.67"/><circle cx="58.62" cy="60.39" r="2.67"/><circle cx="66.08" cy="60.39" r="2.67"/><circle cx="73.54" cy="60.39" r="2.67"/><circle cx="81" cy="60.39" r="2.67"/><circle cx="62.35" cy="53.68" r="2.67"/><circle cx="69.81" cy="53.68" r="2.67"/><circle cx="77.27" cy="53.68" r="2.67"/><circle cx="66.08" cy="46.97" r="2.67"/><circle cx="73.54" cy="46.97" r="2.67"/><circle cx="81" cy="46.97" r="2.67"/><circle cx="69.81" cy="40.26" r="2.67"/><circle cx="77.27" cy="40.26" r="2.67"/><circle cx="29.31" cy="60.39" r="2.67"/><circle cx="36.77" cy="60.39" r="2.67"/><circle cx="44.23" cy="60.39" r="2.67"/><circle cx="51.69" cy="60.39" r="2.67"/><circle cx="25.58" cy="53.68" r="2.67"/><circle cx="33.04" cy="53.68" r="2.67"/><circle cx="40.5" cy="53.68" r="2.67"/><circle cx="47.96" cy="53.68" r="2.67"/><circle cx="55.42" cy="53.68" r="2.67"/><circle cx="21.85" cy="46.97" r="2.67"/><circle cx="29.31" cy="46.97" r="2.67"/><circle cx="36.77" cy="46.97" r="2.67"/><circle cx="44.23" cy="46.97" r="2.67"/><circle cx="51.69" cy="46.97" r="2.67"/><circle cx="59.15" cy="46.97" r="2.67"/><circle cx="18.12" cy="40.26" r="2.67"/><circle cx="25.58" cy="40.26" r="2.67"/><circle cx="33.04" cy="40.26" r="2.67"/><circle cx="40.5" cy="40.26" r="2.67"/><circle cx="47.96" cy="40.26" r="2.67"/><circle cx="55.42" cy="40.26" r="2.67"/><circle cx="62.88" cy="40.26" r="2.67"/><circle cx="21.85" cy="33.55" r="2.67"/><circle cx="29.31" cy="33.55" r="2.67"/><circle cx="36.77" cy="33.55" r="2.67"/><circle cx="44.23" cy="33.55" r="2.67"/><circle cx="51.69" cy="33.55" r="2.67"/><circle cx="59.15" cy="33.55" r="2.67"/><circle cx="25.58" cy="26.84" r="2.67"/><circle cx="33.04" cy="26.84" r="2.67"/><circle cx="40.5" cy="26.84" r="2.67"/><circle cx="47.96" cy="26.84" r="2.67"/><circle cx="55.42" cy="26.84" r="2.67"/><circle cx="29.31" cy="20.13" r="2.67"/><circle cx="36.77" cy="20.13" r="2.67"/><circle cx="44.23" cy="20.13" r="2.67"/><circle cx="51.69" cy="20.13" r="2.67"/><circle cx="3.73" cy="80.52" r="2.67"/><circle cx="11.19" cy="80.52" r="2.67"/><circle cy="73.81" r="2.67"/><circle cx="7.46" cy="73.81" r="2.67"/><circle cx="14.92" cy="73.81" r="2.67"/><circle cx="3.73" cy="67.1" r="2.67"/><circle cx="11.19" cy="67.1" r="2.67"/><circle cx="18.65" cy="67.1" r="2.67"/><circle cy="60.39" r="2.67"/><circle cx="7.46" cy="60.39" r="2.67"/><circle cx="14.92" cy="60.39" r="2.67"/><circle cx="22.38" cy="60.39" r="2.67"/><circle cx="3.73" cy="53.68" r="2.67"/><circle cx="11.19" cy="53.68" r="2.67"/><circle cx="18.65" cy="53.68" r="2.67"/><circle cy="46.97" r="2.67"/><circle cx="7.46" cy="46.97" r="2.67"/><circle cx="14.92" cy="46.97" r="2.67"/><circle cx="3.73" cy="40.26" r="2.67"/><circle cx="11.19" cy="40.26" r="2.67"/><circle cx="69.81" cy="80.52" r="2.67"/><circle cx="77.27" cy="80.52" r="2.67"/><circle cx="18.12" cy="80.52" r="2.67"/><circle cx="25.58" cy="80.52" r="2.67"/><circle cx="33.04" cy="80.52" r="2.67"/><circle cx="40.5" cy="80.52" r="2.67"/><circle cx="47.96" cy="80.52" r="2.67"/><circle cx="55.42" cy="80.52" r="2.67"/><circle cx="62.88" cy="80.52" r="2.67"/><circle cx="21.85" cy="73.81" r="2.67"/><circle cx="29.31" cy="73.81" r="2.67"/><circle cx="36.77" cy="73.81" r="2.67"/><circle cx="44.23" cy="73.81" r="2.67"/><circle cx="51.69" cy="73.81" r="2.67"/><circle cx="59.15" cy="73.81" r="2.67"/><circle cx="25.58" cy="67.1" r="2.67"/><circle cx="33.04" cy="67.1" r="2.67"/><circle cx="40.5" cy="67.1" r="2.67"/><circle cx="47.96" cy="67.1" r="2.67"/><circle cx="55.42" cy="67.1" r="2.67"/><circle cx="29.31" cy="60.39" r="2.67"/><circle cx="36.77" cy="60.39" r="2.67"/><circle cx="44.23" cy="60.39" r="2.67"/><circle cx="51.69" cy="60.39" r="2.67"/><circle cx="3.73" cy="80.52" r="2.67"/><circle cx="11.19" cy="80.52" r="2.67"/></pattern><pattern id="f" x="0" y="0" width="81" height="80.52" patternTransform="translate(-13774.27 -6598.25) scale(.5 -.5)" patternUnits="userSpaceOnUse" viewBox="0 0 81 80.52"><rect width="81" height="80.52" style="fill:none;"/><rect width="81" height="80.52" style="fill:none;"/><circle cx="69.81" r="2.67"/><circle cx="77.27" r="2.67"/><circle cx="3.73" r="2.67"/><circle cx="11.19" r="2.67"/><circle cx="69.81" cy="40.26" r="2.67"/><circle cx="77.27" cy="40.26" r="2.67"/><circle cx="66.08" cy="33.55" r="2.67"/><circle cx="73.54" cy="33.55" r="2.67"/><circle cx="81" cy="33.55" r="2.67"/><circle cx="62.35" cy="26.84" r="2.67"/><circle cx="69.81" cy="26.84" r="2.67"/><circle cx="77.27" cy="26.84" r="2.67"/><circle cx="58.62" cy="20.13" r="2.67"/><circle cx="66.08" cy="20.13" r="2.67"/><circle cx="73.54" cy="20.13" r="2.67"/><circle cx="81" cy="20.13" r="2.67"/><circle cx="62.35" cy="13.42" r="2.67"/><circle cx="69.81" cy="13.42" r="2.67"/><circle cx="77.27" cy="13.42" r="2.67"/><circle cx="66.08" cy="6.71" r="2.67"/><circle cx="73.54" cy="6.71" r="2.67"/><circle cx="81" cy="6.71" r="2.67"/><circle cx="69.81" r="2.67"/><circle cx="77.27" r="2.67"/><circle cx="29.31" cy="20.13" r="2.67"/><circle cx="36.77" cy="20.13" r="2.67"/><circle cx="44.23" cy="20.13" r="2.67"/><circle cx="51.69" cy="20.13" r="2.67"/><circle cx="25.58" cy="13.42" r="2.67"/><circle cx="33.04" cy="13.42" r="2.67"/><circle cx="40.5" cy="13.42" r="2.67"/><circle cx="47.96" cy="13.42" r="2.67"/><circle cx="55.42" cy="13.42" r="2.67"/><circle cx="21.85" cy="6.71" r="2.67"/><circle cx="29.31" cy="6.71" r="2.67"/><circle cx="36.77" cy="6.71" r="2.67"/><circle cx="44.23" cy="6.71" r="2.67"/><circle cx="51.69" cy="6.71" r="2.67"/><circle cx="59.15" cy="6.71" r="2.67"/><circle cx="18.12" r="2.67"/><circle cx="25.58" r="2.67"/><circle cx="33.04" r="2.67"/><circle cx="40.5" r="2.67"/><circle cx="47.96" r="2.67"/><circle cx="55.42" r="2.67"/><circle cx="62.88" r="2.67"/><circle cx="3.73" cy="40.26" r="2.67"/><circle cx="11.19" cy="40.26" r="2.67"/><circle cy="33.55" r="2.67"/><circle cx="7.46" cy="33.55" r="2.67"/><circle cx="14.92" cy="33.55" r="2.67"/><circle cx="3.73" cy="26.84" r="2.67"/><circle cx="11.19" cy="26.84" r="2.67"/><circle cx="18.65" cy="26.84" r="2.67"/><circle cy="20.13" r="2.67"/><circle cx="7.46" cy="20.13" r="2.67"/><circle cx="14.92" cy="20.13" r="2.67"/><circle cx="22.38" cy="20.13" r="2.67"/><circle cx="3.73" cy="13.42" r="2.67"/><circle cx="11.19" cy="13.42" r="2.67"/><circle cx="18.65" cy="13.42" r="2.67"/><circle cy="6.71" r="2.67"/><circle cx="7.46" cy="6.71" r="2.67"/><circle cx="14.92" cy="6.71" r="2.67"/><circle cx="3.73" r="2.67"/><circle cx="11.19" r="2.67"/><circle cx="69.81" cy="80.52" r="2.67"/><circle cx="77.27" cy="80.52" r="2.67"/><circle cx="66.08" cy="73.81" r="2.67"/><circle cx="73.54" cy="73.81" r="2.67"/><circle cx="81" cy="73.81" r="2.67"/><circle cx="62.35" cy="67.1" r="2.67"/><circle cx="69.81" cy="67.1" r="2.67"/><circle cx="77.27" cy="67.1" r="2.67"/><circle cx="58.62" cy="60.39" r="2.67"/><circle cx="66.08" cy="60.39" r="2.67"/><circle cx="73.54" cy="60.39" r="2.67"/><circle cx="81" cy="60.39" r="2.67"/><circle cx="62.35" cy="53.68" r="2.67"/><circle cx="69.81" cy="53.68" r="2.67"/><circle cx="77.27" cy="53.68" r="2.67"/><circle cx="66.08" cy="46.97" r="2.67"/><circle cx="73.54" cy="46.97" r="2.67"/><circle cx="81" cy="46.97" r="2.67"/><circle cx="69.81" cy="40.26" r="2.67"/><circle cx="77.27" cy="40.26" r="2.67"/><circle cx="29.31" cy="60.39" r="2.67"/><circle cx="36.77" cy="60.39" r="2.67"/><circle cx="44.23" cy="60.39" r="2.67"/><circle cx="51.69" cy="60.39" r="2.67"/><circle cx="25.58" cy="53.68" r="2.67"/><circle cx="33.04" cy="53.68" r="2.67"/><circle cx="40.5" cy="53.68" r="2.67"/><circle cx="47.96" cy="53.68" r="2.67"/><circle cx="55.42" cy="53.68" r="2.67"/><circle cx="21.85" cy="46.97" r="2.67"/><circle cx="29.31" cy="46.97" r="2.67"/><circle cx="36.77" cy="46.97" r="2.67"/><circle cx="44.23" cy="46.97" r="2.67"/><circle cx="51.69" cy="46.97" r="2.67"/><circle cx="59.15" cy="46.97" r="2.67"/><circle cx="18.12" cy="40.26" r="2.67"/><circle cx="25.58" cy="40.26" r="2.67"/><circle cx="33.04" cy="40.26" r="2.67"/><circle cx="40.5" cy="40.26" r="2.67"/><circle cx="47.96" cy="40.26" r="2.67"/><circle cx="55.42" cy="40.26" r="2.67"/><circle cx="62.88" cy="40.26" r="2.67"/><circle cx="21.85" cy="33.55" r="2.67"/><circle cx="29.31" cy="33.55" r="2.67"/><circle cx="36.77" cy="33.55" r="2.67"/><circle cx="44.23" cy="33.55" r="2.67"/><circle cx="51.69" cy="33.55" r="2.67"/><circle cx="59.15" cy="33.55" r="2.67"/><circle cx="25.58" cy="26.84" r="2.67"/><circle cx="33.04" cy="26.84" r="2.67"/><circle cx="40.5" cy="26.84" r="2.67"/><circle cx="47.96" cy="26.84" r="2.67"/><circle cx="55.42" cy="26.84" r="2.67"/><circle cx="29.31" cy="20.13" r="2.67"/><circle cx="36.77" cy="20.13" r="2.67"/><circle cx="44.23" cy="20.13" r="2.67"/><circle cx="51.69" cy="20.13" r="2.67"/><circle cx="3.73" cy="80.52" r="2.67"/><circle cx="11.19" cy="80.52" r="2.67"/><circle cy="73.81" r="2.67"/><circle cx="7.46" cy="73.81" r="2.67"/><circle cx="14.92" cy="73.81" r="2.67"/><circle cx="3.73" cy="67.1" r="2.67"/><circle cx="11.19" cy="67.1" r="2.67"/><circle cx="18.65" cy="67.1" r="2.67"/><circle cy="60.39" r="2.67"/><circle cx="7.46" cy="60.39" r="2.67"/><circle cx="14.92" cy="60.39" r="2.67"/><circle cx="22.38" cy="60.39" r="2.67"/><circle cx="3.73" cy="53.68" r="2.67"/><circle cx="11.19" cy="53.68" r="2.67"/><circle cx="18.65" cy="53.68" r="2.67"/><circle cy="46.97" r="2.67"/><circle cx="7.46" cy="46.97" r="2.67"/><circle cx="14.92" cy="46.97" r="2.67"/><circle cx="3.73" cy="40.26" r="2.67"/><circle cx="11.19" cy="40.26" r="2.67"/><circle cx="69.81" cy="80.52" r="2.67"/><circle cx="77.27" cy="80.52" r="2.67"/><circle cx="18.12" cy="80.52" r="2.67"/><circle cx="25.58" cy="80.52" r="2.67"/><circle cx="33.04" cy="80.52" r="2.67"/><circle cx="40.5" cy="80.52" r="2.67"/><circle cx="47.96" cy="80.52" r="2.67"/><circle cx="55.42" cy="80.52" r="2.67"/><circle cx="62.88" cy="80.52" r="2.67"/><circle cx="21.85" cy="73.81" r="2.67"/><circle cx="29.31" cy="73.81" r="2.67"/><circle cx="36.77" cy="73.81" r="2.67"/><circle cx="44.23" cy="73.81" r="2.67"/><circle cx="51.69" cy="73.81" r="2.67"/><circle cx="59.15" cy="73.81" r="2.67"/><circle cx="25.58" cy="67.1" r="2.67"/><circle cx="33.04" cy="67.1" r="2.67"/><circle cx="40.5" cy="67.1" r="2.67"/><circle cx="47.96" cy="67.1" r="2.67"/><circle cx="55.42" cy="67.1" r="2.67"/><circle cx="29.31" cy="60.39" r="2.67"/><circle cx="36.77" cy="60.39" r="2.67"/><circle cx="44.23" cy="60.39" r="2.67"/><circle cx="51.69" cy="60.39" r="2.67"/><circle cx="3.73" cy="80.52" r="2.67"/><circle cx="11.19" cy="80.52" r="2.67"/></pattern></defs><path d="m102.42,212.15c-1.22-9.74-2.36-19.92-3.26-29.82h-10c0,11.99.96,25,2.18,36.6,1.97,18.74,4.61,33.77,4.91,34.77l-14.61,3.34s-11.82,1.4-11.82,11.54h40.89s-4.5-26.08-8.29-56.43h0Z" style="fill:#fff; stroke:#000; stroke-linecap:round; stroke-linejoin:round; stroke-width:5px;"/><path d="m102.42,212.15l-11.08,6.78c-1.22-11.6-2.18-24.61-2.18-36.6h10c.9,9.9,2.04,20.08,3.26,29.82h0Z" style="fill:url(#b);"/><line x1="105.85" y1="237.53" x2="93.91" y2="239.57" style="fill:none; stroke:#000; stroke-linejoin:round; stroke-width:5px;"/><line x1="104.94" y1="231.14" x2="93.01" y2="233" style="fill:none; stroke:#000; stroke-linejoin:round; stroke-width:5px;"/><path d="m137.52,182.33h10c0,31.37-6.59,69.75-7.08,71.37l14.61,3.34s11.82,1.41,11.82,11.54h-40.89s7.85-45.51,11.55-86.25h-.01Z" style="fill:#fff; stroke:#000; stroke-linecap:round; stroke-linejoin:round; stroke-width:5px;"/><path d="m147.52,182.33c0,9.85-.65,20.4-1.56,30.28l-12.26,3.95c1.42-11.05,2.78-22.83,3.82-34.23h10,0Z" style="fill:url(#b);"/><line x1="130.82" y1="237.53" x2="142.76" y2="239.57" style="fill:none; stroke:#000; stroke-linejoin:round; stroke-width:5px;"/><line x1="131.73" y1="231.14" x2="143.67" y2="233" style="fill:none; stroke:#000; stroke-linejoin:round; stroke-width:5px;"/><path d="m113.68,2.5h9.52c8.02,0,14.53,6.51,14.53,14.53v15.04h-38.57v-15.04c0-8.02,6.51-14.53,14.53-14.53h-.01Z" style="fill:#fff; stroke:#000; stroke-linejoin:round; stroke-width:5px;"/><path d="m137.73,32.06h-38.57s22.43-27.17,45.3-27.17c15.01,0,9.44,10.56,4.51,15.62l-11.23,11.55h-.01Z" style="fill:#fff; stroke:#000; stroke-linecap:round; stroke-linejoin:round; stroke-width:5px;"/><path d="m137.73,32.06h-38.57s22.43-27.17,45.3-27.17c15.01,0,9.44,10.56,4.51,15.62l-11.23,11.55h-.01Z" style="fill:url(#c);"/><circle cx="118.54" cy="113.33" r="85.77" style="fill:#fff; stroke:#000; stroke-linecap:round; stroke-linejoin:round; stroke-width:5px;"/><path d="m169.32,182.45c-14.21,10.47-31.78,16.65-50.78,16.65-40.27,0-74.05-27.74-83.27-65.16l134.05,48.51h0Z" style="fill:url(#d);"/><path d="m118.54,27.56c47.37,0,85.77,38.4,85.77,85.77s-38.4,85.77-85.77,85.77" style="fill:none; stroke:#000; stroke-linecap:round; stroke-linejoin:round; stroke-width:5px;"/><path d="m159.93,91.19c.94,7.06,1.44,14.49,1.44,22.14,0,47.37-19.2,85.77-42.89,85.77" style="fill:none; stroke:#000; stroke-linecap:round; stroke-linejoin:round; stroke-width:5px;"/><path d="m118.49,27.56c8.69,0,16.77,5.17,23.53,14.05" style="fill:none; stroke:#000; stroke-linecap:round; stroke-linejoin:round; stroke-width:5px;"/><path d="m118.44,126.6v72.5" style="fill:none; stroke:#000; stroke-linecap:round; stroke-linejoin:round; stroke-width:5px;"/><path d="m118.44,27.56v14.05" style="fill:none; stroke:#000; stroke-linecap:round; stroke-linejoin:round; stroke-width:5px;"/><path d="m76.94,91.19c-.94,7.06-1.44,14.49-1.44,22.14,0,47.37,19.2,85.77,42.89,85.77" style="fill:none; stroke:#000; stroke-linecap:round; stroke-linejoin:round; stroke-width:5px;"/><path d="m118.39,27.56c-8.69,0-16.77,5.17-23.53,14.05" style="fill:none; stroke:#000; stroke-linecap:round; stroke-linejoin:round; stroke-width:5px;"/><path d="m118.34,27.56c-47.37,0-85.77,38.4-85.77,85.77s38.4,85.77,85.77,85.77" style="fill:none; stroke:#000; stroke-linecap:round; stroke-linejoin:round; stroke-width:5px;"/><line x1="37.46" y1="141.93" x2="199.72" y2="141.93" style="fill:none; stroke:#000; stroke-linecap:round; stroke-linejoin:round; stroke-width:5px;"/><line x1="169.17" y1="84.74" x2="199.72" y2="84.74" style="fill:none; stroke:#000; stroke-linecap:round; stroke-linejoin:round; stroke-width:5px;"/><line x1="37.45" y1="84.74" x2="67.24" y2="84.74" style="fill:none; stroke:#000; stroke-linecap:round; stroke-linejoin:round; stroke-width:5px;"/><path d="m123.7,86.76s3.09,9.62,16.35,13.25c0,0-24.2,9.66-39.33-4.16" style="fill:none; stroke:#000; stroke-linecap:round; stroke-linejoin:round; stroke-width:5px;"/><line x1="130.95" y1="102.45" x2="121.62" y2="113.33" style="fill:none; stroke:#000; stroke-linecap:round; stroke-linejoin:round; stroke-width:5px;"/><circle cx="141.3" cy="67.79" r="17.87" style="fill:#fff; stroke:#000; stroke-linecap:round; stroke-linejoin:round; stroke-width:5px;"/><path d="m146.61,67.63c-2.85,0-5.16-2.31-5.16-5.16,0-2.08,1.23-3.86,3-4.67-1-.31-2.06-.49-3.16-.49-5.78,0-10.47,4.69-10.47,10.47s4.69,10.47,10.47,10.47,10.47-4.69,10.47-10.47c0-1.1-.17-2.16-.49-3.16-.82,1.77-2.6,3-4.67,3h.01Z"/><circle cx="95.38" cy="67.79" r="17.87" style="fill:#fff; stroke:#000; stroke-linecap:round; stroke-linejoin:round; stroke-width:5px;"/><path d="m100.7,67.63c-2.85,0-5.16-2.31-5.16-5.16,0-2.08,1.23-3.86,3-4.67-1-.31-2.06-.49-3.16-.49-5.78,0-10.47,4.69-10.47,10.47s4.69,10.47,10.47,10.47,10.47-4.69,10.47-10.47c0-1.1-.17-2.16-.49-3.16-.82,1.77-2.6,3-4.67,3h.01Z"/><circle cx="227.22" cy="69.28" r="22.46" style="fill:url(#e); stroke:#000; stroke-linejoin:round; stroke-width:5px;"/><path d="m265.66,37.53h0c1.54,3.81-.3,8.16-4.11,9.7l-35.04,14.18c-3.81,1.54-8.16-.3-9.7-4.11h0c-1.54-3.81.3-8.16,4.11-9.7l35.04-14.18c3.81-1.54,8.16.3,9.7,4.11Z" style="fill:#fff; stroke:#000; stroke-linejoin:round; stroke-width:5px;"/><rect x="224.76" y="60.67" width="27.6" height="27.17" rx="7.45" ry="7.45" transform="translate(-10.43 94.94) rotate(-22.04)" style="fill:#fff; stroke:#000; stroke-linejoin:round; stroke-width:5px;"/><path d="m230.76,71.88h0c-3.81,1.54-8.16-.3-9.7-4.11l-4.3-10.61c-1.54-3.81.3-8.16,4.11-9.7h0c3.81-1.54,8.16.3,9.7,4.11l4.3,10.61c1.54,3.81-.3,8.16-4.11,9.7Z" style="fill:#fff; stroke:#000; stroke-linejoin:round; stroke-width:5px;"/><circle cx="24.96" cy="182.33" r="22.46" style="fill:#fff; stroke:#000; stroke-linejoin:round; stroke-width:5px;"/><path d="m44.42,193.55c-3.88,6.72-11.15,11.24-19.46,11.24s-15.57-4.52-19.45-11.24h38.91Z" style="fill:url(#f);"/></svg>